<mxfile host="app.diagrams.net" modified="2023-09-06T02:38:17.348Z" agent="Mozilla/5.0 (Windows NT 10.0; Win64; x64) AppleWebKit/537.36 (KHTML, like Gecko) Chrome/115.0.0.0 Safari/537.36 OPR/101.0.0.0" etag="wHWISLyKnXUQUAyMFvpE" version="21.7.2" type="google">
  <diagram name="Page-1" id="0783ab3e-0a74-02c8-0abd-f7b4e66b4bec">
    <mxGraphModel grid="1" page="1" gridSize="10" guides="1" tooltips="1" connect="1" arrows="1" fold="1" pageScale="1" pageWidth="850" pageHeight="1100" background="none" math="0" shadow="0">
      <root>
        <mxCell id="0" />
        <mxCell id="1" parent="0" />
        <mxCell id="fZuGH4uWd7Nxbb1TvUpe-6" style="edgeStyle=orthogonalEdgeStyle;rounded=0;orthogonalLoop=1;jettySize=auto;html=1;entryX=0.391;entryY=-0.005;entryDx=0;entryDy=0;entryPerimeter=0;dashed=1;" edge="1" parent="1" target="fZuGH4uWd7Nxbb1TvUpe-3">
          <mxGeometry relative="1" as="geometry">
            <mxPoint x="100" y="90" as="sourcePoint" />
            <Array as="points">
              <mxPoint x="100" y="116" />
              <mxPoint x="134" y="116" />
            </Array>
          </mxGeometry>
        </mxCell>
        <mxCell id="fZuGH4uWd7Nxbb1TvUpe-2" value="AtorEstudante&lt;br&gt;" style="shape=umlActor;verticalLabelPosition=bottom;verticalAlign=top;html=1;outlineConnect=0;" vertex="1" parent="1">
          <mxGeometry x="80" y="10" width="30" height="60" as="geometry" />
        </mxCell>
        <mxCell id="fZuGH4uWd7Nxbb1TvUpe-3" value="Tratador De Devolução" style="swimlane;fontStyle=0;childLayout=stackLayout;horizontal=1;startSize=26;fillColor=none;horizontalStack=0;resizeParent=1;resizeParentMax=0;resizeLast=0;collapsible=1;marginBottom=0;whiteSpace=wrap;html=1;" vertex="1" parent="1">
          <mxGeometry x="10" y="140" width="317.5" height="78" as="geometry" />
        </mxCell>
        <mxCell id="fZuGH4uWd7Nxbb1TvUpe-4" value="+ registrarDevolução(idEstudante: int, idLivro: int) : void" style="text;strokeColor=none;fillColor=none;align=left;verticalAlign=top;spacingLeft=4;spacingRight=4;overflow=hidden;rotatable=0;points=[[0,0.5],[1,0.5]];portConstraint=eastwest;whiteSpace=wrap;html=1;" vertex="1" parent="fZuGH4uWd7Nxbb1TvUpe-3">
          <mxGeometry y="26" width="317.5" height="26" as="geometry" />
        </mxCell>
        <mxCell id="fZuGH4uWd7Nxbb1TvUpe-5" value="+ emitirBoletoMulta(idEstudante: int, idLivro: int) : void" style="text;strokeColor=none;fillColor=none;align=left;verticalAlign=top;spacingLeft=4;spacingRight=4;overflow=hidden;rotatable=0;points=[[0,0.5],[1,0.5]];portConstraint=eastwest;whiteSpace=wrap;html=1;" vertex="1" parent="fZuGH4uWd7Nxbb1TvUpe-3">
          <mxGeometry y="52" width="317.5" height="26" as="geometry" />
        </mxCell>
        <mxCell id="fZuGH4uWd7Nxbb1TvUpe-11" value="Tratador De Devolução" style="swimlane;fontStyle=0;childLayout=stackLayout;horizontal=1;startSize=26;fillColor=none;horizontalStack=0;resizeParent=1;resizeParentMax=0;resizeLast=0;collapsible=1;marginBottom=0;whiteSpace=wrap;html=1;" vertex="1" parent="1">
          <mxGeometry x="520" y="140" width="317.5" height="138" as="geometry" />
        </mxCell>
        <mxCell id="fZuGH4uWd7Nxbb1TvUpe-12" value="+ consultarReserva(idEstudante: int, idLivro: int) : void" style="text;strokeColor=none;fillColor=none;align=left;verticalAlign=top;spacingLeft=4;spacingRight=4;overflow=hidden;rotatable=0;points=[[0,0.5],[1,0.5]];portConstraint=eastwest;whiteSpace=wrap;html=1;" vertex="1" parent="fZuGH4uWd7Nxbb1TvUpe-11">
          <mxGeometry y="26" width="317.5" height="26" as="geometry" />
        </mxCell>
        <mxCell id="fZuGH4uWd7Nxbb1TvUpe-13" value="+ Reserva(idEstudante: int, idLivro: int) : void" style="text;strokeColor=none;fillColor=none;align=left;verticalAlign=top;spacingLeft=4;spacingRight=4;overflow=hidden;rotatable=0;points=[[0,0.5],[1,0.5]];portConstraint=eastwest;whiteSpace=wrap;html=1;" vertex="1" parent="fZuGH4uWd7Nxbb1TvUpe-11">
          <mxGeometry y="52" width="317.5" height="26" as="geometry" />
        </mxCell>
        <mxCell id="fZuGH4uWd7Nxbb1TvUpe-14" value="&lt;span style=&quot;color: rgb(0, 0, 0); font-family: Helvetica; font-size: 12px; font-style: normal; font-variant-ligatures: normal; font-variant-caps: normal; font-weight: 400; letter-spacing: normal; orphans: 2; text-align: left; text-indent: 0px; text-transform: none; widows: 2; word-spacing: 0px; -webkit-text-stroke-width: 0px; background-color: rgb(251, 251, 251); text-decoration-thickness: initial; text-decoration-style: initial; text-decoration-color: initial; float: none; display: inline !important;&quot;&gt;&amp;nbsp;+ Emprestar(idEstudante: int, idLivro: int) : void&lt;/span&gt;" style="text;whiteSpace=wrap;html=1;" vertex="1" parent="fZuGH4uWd7Nxbb1TvUpe-11">
          <mxGeometry y="78" width="317.5" height="30" as="geometry" />
        </mxCell>
        <mxCell id="fZuGH4uWd7Nxbb1TvUpe-15" value="&lt;span style=&quot;color: rgb(0, 0, 0); font-family: Helvetica; font-size: 12px; font-style: normal; font-variant-ligatures: normal; font-variant-caps: normal; font-weight: 400; letter-spacing: normal; orphans: 2; text-align: left; text-indent: 0px; text-transform: none; widows: 2; word-spacing: 0px; -webkit-text-stroke-width: 0px; background-color: rgb(251, 251, 251); text-decoration-thickness: initial; text-decoration-style: initial; text-decoration-color: initial; float: none; display: inline !important;&quot;&gt;&amp;nbsp;+ Renovar(idEstudante: int, idLivro: int) : void&lt;/span&gt;" style="text;whiteSpace=wrap;html=1;" vertex="1" parent="fZuGH4uWd7Nxbb1TvUpe-11">
          <mxGeometry y="108" width="317.5" height="30" as="geometry" />
        </mxCell>
        <mxCell id="fZuGH4uWd7Nxbb1TvUpe-17" style="edgeStyle=orthogonalEdgeStyle;rounded=0;orthogonalLoop=1;jettySize=auto;html=1;entryX=0.5;entryY=0;entryDx=0;entryDy=0;dashed=1;" edge="1" parent="1" target="fZuGH4uWd7Nxbb1TvUpe-11">
          <mxGeometry relative="1" as="geometry">
            <mxPoint x="679" y="90" as="sourcePoint" />
          </mxGeometry>
        </mxCell>
        <mxCell id="fZuGH4uWd7Nxbb1TvUpe-16" value="AtorEstudante&lt;br&gt;" style="shape=umlActor;verticalLabelPosition=bottom;verticalAlign=top;html=1;outlineConnect=0;" vertex="1" parent="1">
          <mxGeometry x="663.75" y="10" width="30" height="60" as="geometry" />
        </mxCell>
        <mxCell id="fZuGH4uWd7Nxbb1TvUpe-28" style="edgeStyle=orthogonalEdgeStyle;rounded=0;orthogonalLoop=1;jettySize=auto;html=1;exitX=0.5;exitY=1;exitDx=0;exitDy=0;entryX=0;entryY=0.5;entryDx=0;entryDy=0;" edge="1" parent="1" source="fZuGH4uWd7Nxbb1TvUpe-18" target="fZuGH4uWd7Nxbb1TvUpe-27">
          <mxGeometry relative="1" as="geometry" />
        </mxCell>
        <mxCell id="fZuGH4uWd7Nxbb1TvUpe-18" value="" style="rhombus;whiteSpace=wrap;html=1;" vertex="1" parent="1">
          <mxGeometry x="153.75" y="218" width="16.25" height="22" as="geometry" />
        </mxCell>
        <mxCell id="fZuGH4uWd7Nxbb1TvUpe-29" style="edgeStyle=orthogonalEdgeStyle;rounded=0;orthogonalLoop=1;jettySize=auto;html=1;entryX=1;entryY=0.5;entryDx=0;entryDy=0;" edge="1" parent="1" source="fZuGH4uWd7Nxbb1TvUpe-19" target="fZuGH4uWd7Nxbb1TvUpe-27">
          <mxGeometry relative="1" as="geometry">
            <Array as="points">
              <mxPoint x="679" y="360" />
            </Array>
          </mxGeometry>
        </mxCell>
        <mxCell id="fZuGH4uWd7Nxbb1TvUpe-19" value="" style="rhombus;whiteSpace=wrap;html=1;" vertex="1" parent="1">
          <mxGeometry x="670.63" y="278" width="16.25" height="22" as="geometry" />
        </mxCell>
        <mxCell id="fZuGH4uWd7Nxbb1TvUpe-52" style="edgeStyle=orthogonalEdgeStyle;rounded=0;orthogonalLoop=1;jettySize=auto;html=1;entryX=0.5;entryY=0;entryDx=0;entryDy=0;" edge="1" parent="1" source="fZuGH4uWd7Nxbb1TvUpe-27" target="fZuGH4uWd7Nxbb1TvUpe-48">
          <mxGeometry relative="1" as="geometry" />
        </mxCell>
        <mxCell id="fZuGH4uWd7Nxbb1TvUpe-27" value="Movimentação" style="rounded=0;whiteSpace=wrap;html=1;" vertex="1" parent="1">
          <mxGeometry x="305" y="330" width="165" height="70" as="geometry" />
        </mxCell>
        <mxCell id="fZuGH4uWd7Nxbb1TvUpe-30" value="1" style="text;html=1;align=center;verticalAlign=middle;resizable=0;points=[];autosize=1;strokeColor=none;fillColor=none;" vertex="1" parent="1">
          <mxGeometry x="275" y="330" width="30" height="30" as="geometry" />
        </mxCell>
        <mxCell id="fZuGH4uWd7Nxbb1TvUpe-31" value="1" style="text;html=1;align=center;verticalAlign=middle;resizable=0;points=[];autosize=1;strokeColor=none;fillColor=none;" vertex="1" parent="1">
          <mxGeometry x="470" y="330" width="30" height="30" as="geometry" />
        </mxCell>
        <mxCell id="fZuGH4uWd7Nxbb1TvUpe-58" style="edgeStyle=orthogonalEdgeStyle;rounded=0;orthogonalLoop=1;jettySize=auto;html=1;entryX=0.5;entryY=0;entryDx=0;entryDy=0;" edge="1" parent="1" source="fZuGH4uWd7Nxbb1TvUpe-34" target="fZuGH4uWd7Nxbb1TvUpe-54">
          <mxGeometry relative="1" as="geometry" />
        </mxCell>
        <mxCell id="fZuGH4uWd7Nxbb1TvUpe-34" value="" style="rhombus;whiteSpace=wrap;html=1;rotation=91;strokeColor=default;fillColor=#000000;" vertex="1" parent="1">
          <mxGeometry x="470" y="378" width="16.25" height="22" as="geometry" />
        </mxCell>
        <mxCell id="fZuGH4uWd7Nxbb1TvUpe-53" style="edgeStyle=orthogonalEdgeStyle;rounded=0;orthogonalLoop=1;jettySize=auto;html=1;entryX=0.5;entryY=0;entryDx=0;entryDy=0;" edge="1" parent="1" source="fZuGH4uWd7Nxbb1TvUpe-37" target="fZuGH4uWd7Nxbb1TvUpe-38">
          <mxGeometry relative="1" as="geometry" />
        </mxCell>
        <mxCell id="fZuGH4uWd7Nxbb1TvUpe-37" value="" style="rhombus;whiteSpace=wrap;html=1;rotation=91;strokeColor=default;fillColor=#000000;" vertex="1" parent="1">
          <mxGeometry x="288.75" y="378" width="16.25" height="22" as="geometry" />
        </mxCell>
        <mxCell id="fZuGH4uWd7Nxbb1TvUpe-38" value="Devolução" style="swimlane;fontStyle=0;childLayout=stackLayout;horizontal=1;startSize=26;fillColor=none;horizontalStack=0;resizeParent=1;resizeParentMax=0;resizeLast=0;collapsible=1;marginBottom=0;whiteSpace=wrap;html=1;" vertex="1" parent="1">
          <mxGeometry x="91.88" y="440" width="140" height="104" as="geometry" />
        </mxCell>
        <mxCell id="fZuGH4uWd7Nxbb1TvUpe-39" value="- data : char" style="text;strokeColor=none;fillColor=none;align=left;verticalAlign=top;spacingLeft=4;spacingRight=4;overflow=hidden;rotatable=0;points=[[0,0.5],[1,0.5]];portConstraint=eastwest;whiteSpace=wrap;html=1;" vertex="1" parent="fZuGH4uWd7Nxbb1TvUpe-38">
          <mxGeometry y="26" width="140" height="26" as="geometry" />
        </mxCell>
        <mxCell id="fZuGH4uWd7Nxbb1TvUpe-40" value="- idLivro : int" style="text;strokeColor=none;fillColor=none;align=left;verticalAlign=top;spacingLeft=4;spacingRight=4;overflow=hidden;rotatable=0;points=[[0,0.5],[1,0.5]];portConstraint=eastwest;whiteSpace=wrap;html=1;" vertex="1" parent="fZuGH4uWd7Nxbb1TvUpe-38">
          <mxGeometry y="52" width="140" height="26" as="geometry" />
        </mxCell>
        <mxCell id="fZuGH4uWd7Nxbb1TvUpe-41" value="- idEstudante : int" style="text;strokeColor=none;fillColor=none;align=left;verticalAlign=top;spacingLeft=4;spacingRight=4;overflow=hidden;rotatable=0;points=[[0,0.5],[1,0.5]];portConstraint=eastwest;whiteSpace=wrap;html=1;" vertex="1" parent="fZuGH4uWd7Nxbb1TvUpe-38">
          <mxGeometry y="78" width="140" height="26" as="geometry" />
        </mxCell>
        <mxCell id="fZuGH4uWd7Nxbb1TvUpe-42" value="Multa" style="swimlane;fontStyle=0;childLayout=stackLayout;horizontal=1;startSize=26;fillColor=none;horizontalStack=0;resizeParent=1;resizeParentMax=0;resizeLast=0;collapsible=1;marginBottom=0;whiteSpace=wrap;html=1;" vertex="1" parent="1">
          <mxGeometry x="-130" y="440" width="140" height="102" as="geometry" />
        </mxCell>
        <mxCell id="fZuGH4uWd7Nxbb1TvUpe-43" value="- valor :&amp;nbsp; float" style="text;strokeColor=none;fillColor=none;align=left;verticalAlign=top;spacingLeft=4;spacingRight=4;overflow=hidden;rotatable=0;points=[[0,0.5],[1,0.5]];portConstraint=eastwest;whiteSpace=wrap;html=1;" vertex="1" parent="fZuGH4uWd7Nxbb1TvUpe-42">
          <mxGeometry y="26" width="140" height="24" as="geometry" />
        </mxCell>
        <mxCell id="fZuGH4uWd7Nxbb1TvUpe-44" value="- idLivro : int" style="text;strokeColor=none;fillColor=none;align=left;verticalAlign=top;spacingLeft=4;spacingRight=4;overflow=hidden;rotatable=0;points=[[0,0.5],[1,0.5]];portConstraint=eastwest;whiteSpace=wrap;html=1;" vertex="1" parent="fZuGH4uWd7Nxbb1TvUpe-42">
          <mxGeometry y="50" width="140" height="26" as="geometry" />
        </mxCell>
        <mxCell id="fZuGH4uWd7Nxbb1TvUpe-45" value="- idEstudante : int" style="text;strokeColor=none;fillColor=none;align=left;verticalAlign=top;spacingLeft=4;spacingRight=4;overflow=hidden;rotatable=0;points=[[0,0.5],[1,0.5]];portConstraint=eastwest;whiteSpace=wrap;html=1;" vertex="1" parent="fZuGH4uWd7Nxbb1TvUpe-42">
          <mxGeometry y="76" width="140" height="26" as="geometry" />
        </mxCell>
        <mxCell id="fZuGH4uWd7Nxbb1TvUpe-85" style="edgeStyle=orthogonalEdgeStyle;rounded=0;orthogonalLoop=1;jettySize=auto;html=1;entryX=0.5;entryY=0;entryDx=0;entryDy=0;" edge="1" parent="1" source="fZuGH4uWd7Nxbb1TvUpe-48">
          <mxGeometry relative="1" as="geometry">
            <mxPoint x="387.5" y="690" as="targetPoint" />
          </mxGeometry>
        </mxCell>
        <mxCell id="fZuGH4uWd7Nxbb1TvUpe-48" value="Reserva" style="swimlane;fontStyle=0;childLayout=stackLayout;horizontal=1;startSize=26;fillColor=none;horizontalStack=0;resizeParent=1;resizeParentMax=0;resizeLast=0;collapsible=1;marginBottom=0;whiteSpace=wrap;html=1;" vertex="1" parent="1">
          <mxGeometry x="317.5" y="468" width="140" height="104" as="geometry" />
        </mxCell>
        <mxCell id="fZuGH4uWd7Nxbb1TvUpe-49" value="- data : char" style="text;strokeColor=none;fillColor=none;align=left;verticalAlign=top;spacingLeft=4;spacingRight=4;overflow=hidden;rotatable=0;points=[[0,0.5],[1,0.5]];portConstraint=eastwest;whiteSpace=wrap;html=1;" vertex="1" parent="fZuGH4uWd7Nxbb1TvUpe-48">
          <mxGeometry y="26" width="140" height="26" as="geometry" />
        </mxCell>
        <mxCell id="fZuGH4uWd7Nxbb1TvUpe-50" value="- idLivro : int" style="text;strokeColor=none;fillColor=none;align=left;verticalAlign=top;spacingLeft=4;spacingRight=4;overflow=hidden;rotatable=0;points=[[0,0.5],[1,0.5]];portConstraint=eastwest;whiteSpace=wrap;html=1;" vertex="1" parent="fZuGH4uWd7Nxbb1TvUpe-48">
          <mxGeometry y="52" width="140" height="26" as="geometry" />
        </mxCell>
        <mxCell id="fZuGH4uWd7Nxbb1TvUpe-51" value="- IdEstudante : int" style="text;strokeColor=none;fillColor=none;align=left;verticalAlign=top;spacingLeft=4;spacingRight=4;overflow=hidden;rotatable=0;points=[[0,0.5],[1,0.5]];portConstraint=eastwest;whiteSpace=wrap;html=1;" vertex="1" parent="fZuGH4uWd7Nxbb1TvUpe-48">
          <mxGeometry y="78" width="140" height="26" as="geometry" />
        </mxCell>
        <mxCell id="fZuGH4uWd7Nxbb1TvUpe-54" value="Empréstimo" style="swimlane;fontStyle=0;childLayout=stackLayout;horizontal=1;startSize=26;fillColor=none;horizontalStack=0;resizeParent=1;resizeParentMax=0;resizeLast=0;collapsible=1;marginBottom=0;whiteSpace=wrap;html=1;" vertex="1" parent="1">
          <mxGeometry x="530" y="440" width="140" height="104" as="geometry" />
        </mxCell>
        <mxCell id="fZuGH4uWd7Nxbb1TvUpe-55" value="- data : char" style="text;strokeColor=none;fillColor=none;align=left;verticalAlign=top;spacingLeft=4;spacingRight=4;overflow=hidden;rotatable=0;points=[[0,0.5],[1,0.5]];portConstraint=eastwest;whiteSpace=wrap;html=1;" vertex="1" parent="fZuGH4uWd7Nxbb1TvUpe-54">
          <mxGeometry y="26" width="140" height="26" as="geometry" />
        </mxCell>
        <mxCell id="fZuGH4uWd7Nxbb1TvUpe-56" value="- idLivro : int" style="text;strokeColor=none;fillColor=none;align=left;verticalAlign=top;spacingLeft=4;spacingRight=4;overflow=hidden;rotatable=0;points=[[0,0.5],[1,0.5]];portConstraint=eastwest;whiteSpace=wrap;html=1;" vertex="1" parent="fZuGH4uWd7Nxbb1TvUpe-54">
          <mxGeometry y="52" width="140" height="26" as="geometry" />
        </mxCell>
        <mxCell id="fZuGH4uWd7Nxbb1TvUpe-57" value="- idEstudante : int" style="text;strokeColor=none;fillColor=none;align=left;verticalAlign=top;spacingLeft=4;spacingRight=4;overflow=hidden;rotatable=0;points=[[0,0.5],[1,0.5]];portConstraint=eastwest;whiteSpace=wrap;html=1;" vertex="1" parent="fZuGH4uWd7Nxbb1TvUpe-54">
          <mxGeometry y="78" width="140" height="26" as="geometry" />
        </mxCell>
        <mxCell id="fZuGH4uWd7Nxbb1TvUpe-59" value="" style="shape=link;html=1;rounded=0;entryX=0.5;entryY=1;entryDx=0;entryDy=0;" edge="1" parent="1">
          <mxGeometry width="100" relative="1" as="geometry">
            <mxPoint x="306.44" y="388.73999999999995" as="sourcePoint" />
            <mxPoint x="468.5666753532798" y="389.25802352918987" as="targetPoint" />
          </mxGeometry>
        </mxCell>
        <mxCell id="fZuGH4uWd7Nxbb1TvUpe-62" style="edgeStyle=orthogonalEdgeStyle;rounded=0;orthogonalLoop=1;jettySize=auto;html=1;entryX=1;entryY=0.5;entryDx=0;entryDy=0;" edge="1" parent="1" source="fZuGH4uWd7Nxbb1TvUpe-40" target="fZuGH4uWd7Nxbb1TvUpe-44">
          <mxGeometry relative="1" as="geometry" />
        </mxCell>
        <mxCell id="fZuGH4uWd7Nxbb1TvUpe-70" value="" style="endArrow=none;html=1;rounded=0;entryX=0.506;entryY=1.038;entryDx=0;entryDy=0;entryPerimeter=0;" edge="1" parent="1" target="fZuGH4uWd7Nxbb1TvUpe-57">
          <mxGeometry width="50" height="50" relative="1" as="geometry">
            <mxPoint x="390" y="610" as="sourcePoint" />
            <mxPoint x="600" y="560" as="targetPoint" />
            <Array as="points">
              <mxPoint x="600" y="610" />
            </Array>
          </mxGeometry>
        </mxCell>
        <mxCell id="fZuGH4uWd7Nxbb1TvUpe-72" value="" style="endArrow=none;html=1;rounded=0;exitX=0.483;exitY=0.93;exitDx=0;exitDy=0;exitPerimeter=0;" edge="1" parent="1" source="fZuGH4uWd7Nxbb1TvUpe-41">
          <mxGeometry width="50" height="50" relative="1" as="geometry">
            <mxPoint x="160" y="610" as="sourcePoint" />
            <mxPoint x="390" y="610" as="targetPoint" />
            <Array as="points">
              <mxPoint x="160" y="610" />
            </Array>
          </mxGeometry>
        </mxCell>
        <mxCell id="fZuGH4uWd7Nxbb1TvUpe-73" value="" style="triangle;whiteSpace=wrap;html=1;rotation=90;fillColor=#000000;" vertex="1" parent="1">
          <mxGeometry x="195" y="405" width="10" height="20" as="geometry" />
        </mxCell>
        <mxCell id="fZuGH4uWd7Nxbb1TvUpe-75" value="Composta por" style="text;html=1;align=center;verticalAlign=middle;resizable=0;points=[];autosize=1;strokeColor=none;fillColor=none;fontSize=5;" vertex="1" parent="1">
          <mxGeometry x="175" y="395" width="50" height="20" as="geometry" />
        </mxCell>
        <mxCell id="fZuGH4uWd7Nxbb1TvUpe-77" value="" style="triangle;whiteSpace=wrap;html=1;fillColor=#000000;" vertex="1" parent="1">
          <mxGeometry x="580" y="405" width="10" height="20" as="geometry" />
        </mxCell>
        <mxCell id="fZuGH4uWd7Nxbb1TvUpe-78" value="Composta por" style="text;html=1;align=center;verticalAlign=middle;resizable=0;points=[];autosize=1;strokeColor=none;fillColor=none;fontSize=5;" vertex="1" parent="1">
          <mxGeometry x="530" y="405" width="50" height="20" as="geometry" />
        </mxCell>
        <mxCell id="fZuGH4uWd7Nxbb1TvUpe-79" value="&lt;font style=&quot;font-size: 10px;&quot;&gt;0...*&lt;/font&gt;" style="text;html=1;align=center;verticalAlign=middle;resizable=0;points=[];autosize=1;strokeColor=none;fillColor=none;" vertex="1" parent="1">
          <mxGeometry x="120" y="415" width="40" height="30" as="geometry" />
        </mxCell>
        <mxCell id="fZuGH4uWd7Nxbb1TvUpe-80" value="&lt;font style=&quot;font-size: 10px;&quot;&gt;0...*&lt;/font&gt;" style="text;html=1;align=center;verticalAlign=middle;resizable=0;points=[];autosize=1;strokeColor=none;fillColor=none;" vertex="1" parent="1">
          <mxGeometry x="610" y="410" width="40" height="30" as="geometry" />
        </mxCell>
        <mxCell id="fZuGH4uWd7Nxbb1TvUpe-81" value="&lt;font style=&quot;font-size: 10px;&quot;&gt;0...*&lt;/font&gt;" style="text;html=1;align=center;verticalAlign=middle;resizable=0;points=[];autosize=1;strokeColor=none;fillColor=none;" vertex="1" parent="1">
          <mxGeometry x="350" y="438" width="40" height="30" as="geometry" />
        </mxCell>
        <mxCell id="fZuGH4uWd7Nxbb1TvUpe-82" value="&lt;font style=&quot;font-size: 10px;&quot;&gt;0..1&lt;/font&gt;" style="text;html=1;align=center;verticalAlign=middle;resizable=0;points=[];autosize=1;strokeColor=none;fillColor=none;" vertex="1" parent="1">
          <mxGeometry x="10" y="477" width="40" height="30" as="geometry" />
        </mxCell>
        <mxCell id="fZuGH4uWd7Nxbb1TvUpe-83" value="" style="triangle;whiteSpace=wrap;html=1;rotation=-180;gradientColor=default;fillColor=#000000;" vertex="1" parent="1">
          <mxGeometry x="20" y="510" width="10" height="20" as="geometry" />
        </mxCell>
        <mxCell id="fZuGH4uWd7Nxbb1TvUpe-84" value="Acarreta" style="text;html=1;align=center;verticalAlign=middle;resizable=0;points=[];autosize=1;strokeColor=none;fillColor=none;" vertex="1" parent="1">
          <mxGeometry x="21.88" y="505" width="70" height="30" as="geometry" />
        </mxCell>
        <mxCell id="fZuGH4uWd7Nxbb1TvUpe-86" value="é Uma" style="text;html=1;align=center;verticalAlign=middle;resizable=0;points=[];autosize=1;strokeColor=none;fillColor=none;" vertex="1" parent="1">
          <mxGeometry x="330" y="618" width="60" height="30" as="geometry" />
        </mxCell>
        <mxCell id="fZuGH4uWd7Nxbb1TvUpe-87" value="" style="triangle;whiteSpace=wrap;html=1;rotation=90;fillColor=#000000;" vertex="1" parent="1">
          <mxGeometry x="410" y="438" width="10" height="20" as="geometry" />
        </mxCell>
        <mxCell id="fZuGH4uWd7Nxbb1TvUpe-88" value="Composta por" style="text;html=1;align=center;verticalAlign=middle;resizable=0;points=[];autosize=1;strokeColor=none;fillColor=none;fontSize=5;" vertex="1" parent="1">
          <mxGeometry x="390" y="425" width="50" height="20" as="geometry" />
        </mxCell>
        <mxCell id="fZuGH4uWd7Nxbb1TvUpe-92" value="&lt;p style=&quot;margin:0px;margin-top:4px;text-align:center;&quot;&gt;&lt;b&gt;Transação&lt;/b&gt;&lt;/p&gt;&lt;hr size=&quot;1&quot;&gt;&lt;div style=&quot;height:2px;&quot;&gt;&lt;/div&gt;&lt;hr size=&quot;1&quot;&gt;&lt;div style=&quot;height:2px;&quot;&gt;&lt;/div&gt;" style="verticalAlign=top;align=left;overflow=fill;fontSize=12;fontFamily=Helvetica;html=1;whiteSpace=wrap;" vertex="1" parent="1">
          <mxGeometry x="317.51" y="690" width="140" height="60" as="geometry" />
        </mxCell>
        <mxCell id="fZuGH4uWd7Nxbb1TvUpe-175" style="edgeStyle=orthogonalEdgeStyle;rounded=0;orthogonalLoop=1;jettySize=auto;html=1;entryX=0;entryY=0.5;entryDx=0;entryDy=0;exitX=0.5;exitY=0;exitDx=0;exitDy=0;endArrow=diamondThin;endFill=0;endSize=15;" edge="1" parent="1" source="fZuGH4uWd7Nxbb1TvUpe-94" target="fZuGH4uWd7Nxbb1TvUpe-95">
          <mxGeometry relative="1" as="geometry" />
        </mxCell>
        <mxCell id="fZuGH4uWd7Nxbb1TvUpe-94" value="&lt;p style=&quot;margin:0px;margin-top:4px;text-align:center;&quot;&gt;&lt;b&gt;Estudante&lt;/b&gt;&lt;/p&gt;&lt;hr size=&quot;1&quot;&gt;&lt;font style=&quot;font-size: 9px;&quot;&gt;- idEstudante : int&lt;/font&gt;&lt;div style=&quot;height: 2px; font-size: 11px;&quot;&gt;&lt;/div&gt;&lt;hr size=&quot;1&quot;&gt;&lt;div style=&quot;height:2px;&quot;&gt;&lt;/div&gt;" style="verticalAlign=top;align=left;overflow=fill;fontSize=12;fontFamily=Helvetica;html=1;whiteSpace=wrap;" vertex="1" parent="1">
          <mxGeometry x="490" y="852" width="140" height="68" as="geometry" />
        </mxCell>
        <mxCell id="fZuGH4uWd7Nxbb1TvUpe-168" style="edgeStyle=orthogonalEdgeStyle;rounded=0;orthogonalLoop=1;jettySize=auto;html=1;entryX=0.5;entryY=0;entryDx=0;entryDy=0;endArrow=diamondThin;endFill=0;endSize=15;" edge="1" parent="1" source="fZuGH4uWd7Nxbb1TvUpe-95" target="fZuGH4uWd7Nxbb1TvUpe-96">
          <mxGeometry relative="1" as="geometry" />
        </mxCell>
        <mxCell id="fZuGH4uWd7Nxbb1TvUpe-95" value="&lt;p style=&quot;margin:0px;margin-top:4px;text-align:center;&quot;&gt;&lt;b&gt;Grupo de academicos&lt;/b&gt;&lt;/p&gt;&lt;hr size=&quot;1&quot;&gt;&lt;div style=&quot;height:2px;&quot;&gt;&lt;/div&gt;&lt;hr size=&quot;1&quot;&gt;&lt;div style=&quot;height:2px;&quot;&gt;&lt;/div&gt;" style="verticalAlign=top;align=left;overflow=fill;fontSize=12;fontFamily=Helvetica;html=1;whiteSpace=wrap;" vertex="1" parent="1">
          <mxGeometry x="790" y="760" width="140" height="50" as="geometry" />
        </mxCell>
        <mxCell id="fZuGH4uWd7Nxbb1TvUpe-96" value="TratadorDeCadastro" style="swimlane;fontStyle=0;childLayout=stackLayout;horizontal=1;startSize=26;fillColor=none;horizontalStack=0;resizeParent=1;resizeParentMax=0;resizeLast=0;collapsible=1;marginBottom=0;whiteSpace=wrap;html=1;" vertex="1" parent="1">
          <mxGeometry x="1390" y="880" width="370" height="438" as="geometry" />
        </mxCell>
        <mxCell id="fZuGH4uWd7Nxbb1TvUpe-97" value="- inserirLivro(idLivro : int, titulo : char , estado : char) : void" style="text;strokeColor=none;fillColor=none;align=left;verticalAlign=top;spacingLeft=4;spacingRight=4;overflow=hidden;rotatable=0;points=[[0,0.5],[1,0.5]];portConstraint=eastwest;whiteSpace=wrap;html=1;" vertex="1" parent="fZuGH4uWd7Nxbb1TvUpe-96">
          <mxGeometry y="26" width="370" height="26" as="geometry" />
        </mxCell>
        <mxCell id="fZuGH4uWd7Nxbb1TvUpe-98" value="- consultarLivro(idLivro : int) : void" style="text;strokeColor=none;fillColor=none;align=left;verticalAlign=top;spacingLeft=4;spacingRight=4;overflow=hidden;rotatable=0;points=[[0,0.5],[1,0.5]];portConstraint=eastwest;whiteSpace=wrap;html=1;" vertex="1" parent="fZuGH4uWd7Nxbb1TvUpe-96">
          <mxGeometry y="52" width="370" height="26" as="geometry" />
        </mxCell>
        <mxCell id="fZuGH4uWd7Nxbb1TvUpe-145" value="- atualizarLivro(idLivro : int, titulo : char , estado : char) : void" style="text;strokeColor=none;fillColor=none;align=left;verticalAlign=top;spacingLeft=4;spacingRight=4;overflow=hidden;rotatable=0;points=[[0,0.5],[1,0.5]];portConstraint=eastwest;whiteSpace=wrap;html=1;" vertex="1" parent="fZuGH4uWd7Nxbb1TvUpe-96">
          <mxGeometry y="78" width="370" height="26" as="geometry" />
        </mxCell>
        <mxCell id="fZuGH4uWd7Nxbb1TvUpe-99" value="- excluirLivro(idLivro : int) : void" style="text;strokeColor=none;fillColor=none;align=left;verticalAlign=top;spacingLeft=4;spacingRight=4;overflow=hidden;rotatable=0;points=[[0,0.5],[1,0.5]];portConstraint=eastwest;whiteSpace=wrap;html=1;" vertex="1" parent="fZuGH4uWd7Nxbb1TvUpe-96">
          <mxGeometry y="104" width="370" height="26" as="geometry" />
        </mxCell>
        <mxCell id="fZuGH4uWd7Nxbb1TvUpe-146" value="- inserirPessoa(nome : char, sobrenome : char , cpf : char) : void" style="text;strokeColor=none;fillColor=none;align=left;verticalAlign=top;spacingLeft=4;spacingRight=4;overflow=hidden;rotatable=0;points=[[0,0.5],[1,0.5]];portConstraint=eastwest;whiteSpace=wrap;html=1;" vertex="1" parent="fZuGH4uWd7Nxbb1TvUpe-96">
          <mxGeometry y="130" width="370" height="26" as="geometry" />
        </mxCell>
        <mxCell id="fZuGH4uWd7Nxbb1TvUpe-147" value="- consultarPessoa(cpf : char) : void" style="text;strokeColor=none;fillColor=none;align=left;verticalAlign=top;spacingLeft=4;spacingRight=4;overflow=hidden;rotatable=0;points=[[0,0.5],[1,0.5]];portConstraint=eastwest;whiteSpace=wrap;html=1;" vertex="1" parent="fZuGH4uWd7Nxbb1TvUpe-96">
          <mxGeometry y="156" width="370" height="26" as="geometry" />
        </mxCell>
        <mxCell id="fZuGH4uWd7Nxbb1TvUpe-152" value="- atualizarPessoa(nome : char, sobrenome : char , cpf : char) : void" style="text;strokeColor=none;fillColor=none;align=left;verticalAlign=top;spacingLeft=4;spacingRight=4;overflow=hidden;rotatable=0;points=[[0,0.5],[1,0.5]];portConstraint=eastwest;whiteSpace=wrap;html=1;" vertex="1" parent="fZuGH4uWd7Nxbb1TvUpe-96">
          <mxGeometry y="182" width="370" height="26" as="geometry" />
        </mxCell>
        <mxCell id="fZuGH4uWd7Nxbb1TvUpe-151" value="- excluirPessoa(cpf : char) : void" style="text;strokeColor=none;fillColor=none;align=left;verticalAlign=top;spacingLeft=4;spacingRight=4;overflow=hidden;rotatable=0;points=[[0,0.5],[1,0.5]];portConstraint=eastwest;whiteSpace=wrap;html=1;" vertex="1" parent="fZuGH4uWd7Nxbb1TvUpe-96">
          <mxGeometry y="208" width="370" height="26" as="geometry" />
        </mxCell>
        <mxCell id="fZuGH4uWd7Nxbb1TvUpe-150" value="- inserirEstudante(cpf : char) : void" style="text;strokeColor=none;fillColor=none;align=left;verticalAlign=top;spacingLeft=4;spacingRight=4;overflow=hidden;rotatable=0;points=[[0,0.5],[1,0.5]];portConstraint=eastwest;whiteSpace=wrap;html=1;" vertex="1" parent="fZuGH4uWd7Nxbb1TvUpe-96">
          <mxGeometry y="234" width="370" height="26" as="geometry" />
        </mxCell>
        <mxCell id="fZuGH4uWd7Nxbb1TvUpe-149" value="- consultarEstudante(idEstudante : int) void" style="text;strokeColor=none;fillColor=none;align=left;verticalAlign=top;spacingLeft=4;spacingRight=4;overflow=hidden;rotatable=0;points=[[0,0.5],[1,0.5]];portConstraint=eastwest;whiteSpace=wrap;html=1;" vertex="1" parent="fZuGH4uWd7Nxbb1TvUpe-96">
          <mxGeometry y="260" width="370" height="26" as="geometry" />
        </mxCell>
        <mxCell id="fZuGH4uWd7Nxbb1TvUpe-148" value="- atualizarEstudante(cpf : char) : void" style="text;strokeColor=none;fillColor=none;align=left;verticalAlign=top;spacingLeft=4;spacingRight=4;overflow=hidden;rotatable=0;points=[[0,0.5],[1,0.5]];portConstraint=eastwest;whiteSpace=wrap;html=1;" vertex="1" parent="fZuGH4uWd7Nxbb1TvUpe-96">
          <mxGeometry y="286" width="370" height="24" as="geometry" />
        </mxCell>
        <mxCell id="ktZMPZ2piIst7epQnQgk-1" value="- excluirEstudante(cpf : char) : void" style="text;strokeColor=none;fillColor=none;align=left;verticalAlign=top;spacingLeft=4;spacingRight=4;overflow=hidden;rotatable=0;points=[[0,0.5],[1,0.5]];portConstraint=eastwest;whiteSpace=wrap;html=1;" vertex="1" parent="fZuGH4uWd7Nxbb1TvUpe-96">
          <mxGeometry y="310" width="370" height="26" as="geometry" />
        </mxCell>
        <mxCell id="ktZMPZ2piIst7epQnQgk-3" value="- inserirAtendente(cpf : char) : void" style="text;strokeColor=none;fillColor=none;align=left;verticalAlign=top;spacingLeft=4;spacingRight=4;overflow=hidden;rotatable=0;points=[[0,0.5],[1,0.5]];portConstraint=eastwest;whiteSpace=wrap;html=1;" vertex="1" parent="fZuGH4uWd7Nxbb1TvUpe-96">
          <mxGeometry y="336" width="370" height="26" as="geometry" />
        </mxCell>
        <mxCell id="ktZMPZ2piIst7epQnQgk-2" value="- consultarAtendente(idEstudante : int) void" style="text;strokeColor=none;fillColor=none;align=left;verticalAlign=top;spacingLeft=4;spacingRight=4;overflow=hidden;rotatable=0;points=[[0,0.5],[1,0.5]];portConstraint=eastwest;whiteSpace=wrap;html=1;" vertex="1" parent="fZuGH4uWd7Nxbb1TvUpe-96">
          <mxGeometry y="362" width="370" height="24" as="geometry" />
        </mxCell>
        <mxCell id="ktZMPZ2piIst7epQnQgk-4" value="- atualizarAtendente(cpf : char) : void" style="text;strokeColor=none;fillColor=none;align=left;verticalAlign=top;spacingLeft=4;spacingRight=4;overflow=hidden;rotatable=0;points=[[0,0.5],[1,0.5]];portConstraint=eastwest;whiteSpace=wrap;html=1;" vertex="1" parent="fZuGH4uWd7Nxbb1TvUpe-96">
          <mxGeometry y="386" width="370" height="26" as="geometry" />
        </mxCell>
        <mxCell id="ktZMPZ2piIst7epQnQgk-6" value="- excluirAtendente(cpf : char) : void" style="text;strokeColor=none;fillColor=none;align=left;verticalAlign=top;spacingLeft=4;spacingRight=4;overflow=hidden;rotatable=0;points=[[0,0.5],[1,0.5]];portConstraint=eastwest;whiteSpace=wrap;html=1;" vertex="1" parent="fZuGH4uWd7Nxbb1TvUpe-96">
          <mxGeometry y="412" width="370" height="26" as="geometry" />
        </mxCell>
        <mxCell id="fZuGH4uWd7Nxbb1TvUpe-105" value="&lt;p style=&quot;margin:0px;margin-top:4px;text-align:center;&quot;&gt;&lt;b&gt;Atendente&lt;/b&gt;&lt;/p&gt;&lt;hr size=&quot;1&quot;&gt;&amp;nbsp;- idAtendente : int&lt;div style=&quot;height:2px;&quot;&gt;&amp;nbsp;&lt;/div&gt;&lt;hr size=&quot;1&quot;&gt;&lt;div style=&quot;height:2px;&quot;&gt;&lt;/div&gt;" style="verticalAlign=top;align=left;overflow=fill;fontSize=12;fontFamily=Helvetica;html=1;whiteSpace=wrap;" vertex="1" parent="1">
          <mxGeometry x="790" y="1048" width="140" height="70" as="geometry" />
        </mxCell>
        <mxCell id="fZuGH4uWd7Nxbb1TvUpe-106" value="Livro" style="swimlane;fontStyle=0;childLayout=stackLayout;horizontal=1;startSize=26;fillColor=none;horizontalStack=0;resizeParent=1;resizeParentMax=0;resizeLast=0;collapsible=1;marginBottom=0;whiteSpace=wrap;html=1;" vertex="1" parent="1">
          <mxGeometry x="580" y="1150" width="140" height="104" as="geometry" />
        </mxCell>
        <mxCell id="fZuGH4uWd7Nxbb1TvUpe-107" value="- idLivro : int" style="text;strokeColor=none;fillColor=none;align=left;verticalAlign=top;spacingLeft=4;spacingRight=4;overflow=hidden;rotatable=0;points=[[0,0.5],[1,0.5]];portConstraint=eastwest;whiteSpace=wrap;html=1;" vertex="1" parent="fZuGH4uWd7Nxbb1TvUpe-106">
          <mxGeometry y="26" width="140" height="26" as="geometry" />
        </mxCell>
        <mxCell id="fZuGH4uWd7Nxbb1TvUpe-108" value="- titulo : char" style="text;strokeColor=none;fillColor=none;align=left;verticalAlign=top;spacingLeft=4;spacingRight=4;overflow=hidden;rotatable=0;points=[[0,0.5],[1,0.5]];portConstraint=eastwest;whiteSpace=wrap;html=1;" vertex="1" parent="fZuGH4uWd7Nxbb1TvUpe-106">
          <mxGeometry y="52" width="140" height="26" as="geometry" />
        </mxCell>
        <mxCell id="fZuGH4uWd7Nxbb1TvUpe-109" value="- estado : char" style="text;strokeColor=none;fillColor=none;align=left;verticalAlign=top;spacingLeft=4;spacingRight=4;overflow=hidden;rotatable=0;points=[[0,0.5],[1,0.5]];portConstraint=eastwest;whiteSpace=wrap;html=1;" vertex="1" parent="fZuGH4uWd7Nxbb1TvUpe-106">
          <mxGeometry y="78" width="140" height="26" as="geometry" />
        </mxCell>
        <mxCell id="fZuGH4uWd7Nxbb1TvUpe-158" style="edgeStyle=orthogonalEdgeStyle;rounded=0;orthogonalLoop=1;jettySize=auto;html=1;entryX=0.5;entryY=0;entryDx=0;entryDy=0;endArrow=none;endFill=0;" edge="1" parent="1" source="fZuGH4uWd7Nxbb1TvUpe-110" target="fZuGH4uWd7Nxbb1TvUpe-111">
          <mxGeometry relative="1" as="geometry" />
        </mxCell>
        <mxCell id="fZuGH4uWd7Nxbb1TvUpe-110" value="&lt;p style=&quot;margin:0px;margin-top:4px;text-align:center;&quot;&gt;&lt;b&gt;Grupo de Pessoas&lt;/b&gt;&lt;/p&gt;&lt;hr size=&quot;1&quot;&gt;&lt;div style=&quot;height:2px;&quot;&gt;&lt;/div&gt;&lt;hr size=&quot;1&quot;&gt;&lt;div style=&quot;height:2px;&quot;&gt;&lt;/div&gt;" style="verticalAlign=top;align=left;overflow=fill;fontSize=12;fontFamily=Helvetica;html=1;whiteSpace=wrap;" vertex="1" parent="1">
          <mxGeometry x="1110" y="880" width="140" height="60" as="geometry" />
        </mxCell>
        <mxCell id="fZuGH4uWd7Nxbb1TvUpe-111" value="&lt;p style=&quot;margin:0px;margin-top:4px;text-align:center;&quot;&gt;&lt;b&gt;Grupo de Colaborador&lt;/b&gt;&lt;/p&gt;&lt;hr size=&quot;1&quot;&gt;&lt;div style=&quot;height:2px;&quot;&gt;&lt;/div&gt;&lt;hr size=&quot;1&quot;&gt;&lt;div style=&quot;height:2px;&quot;&gt;&lt;/div&gt;" style="verticalAlign=top;align=left;overflow=fill;fontSize=12;fontFamily=Helvetica;html=1;whiteSpace=wrap;" vertex="1" parent="1">
          <mxGeometry x="1110" y="1058" width="140" height="60" as="geometry" />
        </mxCell>
        <mxCell id="fZuGH4uWd7Nxbb1TvUpe-113" value="" style="endArrow=none;html=1;rounded=0;" edge="1" parent="1">
          <mxGeometry width="50" height="50" relative="1" as="geometry">
            <mxPoint x="430" y="881.71" as="sourcePoint" />
            <mxPoint x="490" y="881.71" as="targetPoint" />
            <Array as="points">
              <mxPoint x="460" y="881.71" />
            </Array>
          </mxGeometry>
        </mxCell>
        <mxCell id="fZuGH4uWd7Nxbb1TvUpe-114" value="" style="endArrow=none;html=1;rounded=0;" edge="1" parent="1">
          <mxGeometry width="50" height="50" relative="1" as="geometry">
            <mxPoint x="385" y="881.71" as="sourcePoint" />
            <mxPoint x="445" y="881.71" as="targetPoint" />
            <Array as="points">
              <mxPoint x="415" y="881.71" />
            </Array>
          </mxGeometry>
        </mxCell>
        <mxCell id="fZuGH4uWd7Nxbb1TvUpe-119" value="" style="triangle;whiteSpace=wrap;html=1;rotation=90;fillColor=#000000;" vertex="1" parent="1">
          <mxGeometry x="410" y="860" width="10" height="20" as="geometry" />
        </mxCell>
        <mxCell id="fZuGH4uWd7Nxbb1TvUpe-120" value="&lt;font style=&quot;font-size: 7px;&quot;&gt;Executam&lt;/font&gt;" style="text;strokeColor=none;align=center;fillColor=none;html=1;verticalAlign=middle;whiteSpace=wrap;rounded=0;" vertex="1" parent="1">
          <mxGeometry x="385" y="840" width="60" height="30" as="geometry" />
        </mxCell>
        <mxCell id="fZuGH4uWd7Nxbb1TvUpe-121" value="&lt;font style=&quot;font-size: 10px;&quot;&gt;0...*&lt;/font&gt;" style="text;html=1;align=center;verticalAlign=middle;resizable=0;points=[];autosize=1;strokeColor=none;fillColor=none;" vertex="1" parent="1">
          <mxGeometry x="450" y="877" width="40" height="30" as="geometry" />
        </mxCell>
        <mxCell id="fZuGH4uWd7Nxbb1TvUpe-125" value="" style="endArrow=none;html=1;rounded=0;entryX=0.001;entryY=0.305;entryDx=0;entryDy=0;entryPerimeter=0;" edge="1" parent="1" target="fZuGH4uWd7Nxbb1TvUpe-108">
          <mxGeometry width="50" height="50" relative="1" as="geometry">
            <mxPoint x="385" y="1210" as="sourcePoint" />
            <mxPoint x="435" y="1160" as="targetPoint" />
          </mxGeometry>
        </mxCell>
        <mxCell id="fZuGH4uWd7Nxbb1TvUpe-127" value="" style="triangle;whiteSpace=wrap;html=1;rotation=90;fillColor=#000000;" vertex="1" parent="1">
          <mxGeometry x="350" y="1192" width="10" height="20" as="geometry" />
        </mxCell>
        <mxCell id="fZuGH4uWd7Nxbb1TvUpe-128" value="&lt;font style=&quot;font-size: 8px;&quot;&gt;Possibilitam&lt;/font&gt;" style="text;strokeColor=none;align=center;fillColor=none;html=1;verticalAlign=middle;whiteSpace=wrap;rounded=0;" vertex="1" parent="1">
          <mxGeometry x="325" y="1170" width="60" height="30" as="geometry" />
        </mxCell>
        <mxCell id="fZuGH4uWd7Nxbb1TvUpe-130" style="edgeStyle=orthogonalEdgeStyle;rounded=0;orthogonalLoop=1;jettySize=auto;html=1;endArrow=none;endFill=0;" edge="1" parent="1">
          <mxGeometry relative="1" as="geometry">
            <mxPoint x="390" y="1079.75" as="targetPoint" />
            <mxPoint x="750" y="1079.75" as="sourcePoint" />
          </mxGeometry>
        </mxCell>
        <mxCell id="fZuGH4uWd7Nxbb1TvUpe-129" value="" style="line;strokeWidth=1;fillColor=none;align=left;verticalAlign=middle;spacingTop=-1;spacingLeft=3;spacingRight=3;rotatable=0;labelPosition=right;points=[];portConstraint=eastwest;strokeColor=inherit;" vertex="1" parent="1">
          <mxGeometry x="750" y="1076" width="40" height="8" as="geometry" />
        </mxCell>
        <mxCell id="fZuGH4uWd7Nxbb1TvUpe-132" style="edgeStyle=orthogonalEdgeStyle;rounded=0;orthogonalLoop=1;jettySize=auto;html=1;entryX=0.5;entryY=0;entryDx=0;entryDy=0;exitX=0.5;exitY=1;exitDx=0;exitDy=0;" edge="1" parent="1" source="fZuGH4uWd7Nxbb1TvUpe-136" target="fZuGH4uWd7Nxbb1TvUpe-105">
          <mxGeometry relative="1" as="geometry">
            <mxPoint x="860" y="944" as="sourcePoint" />
            <Array as="points" />
          </mxGeometry>
        </mxCell>
        <mxCell id="fZuGH4uWd7Nxbb1TvUpe-133" style="edgeStyle=orthogonalEdgeStyle;rounded=0;orthogonalLoop=1;jettySize=auto;html=1;entryX=0.991;entryY=0.394;entryDx=0;entryDy=0;entryPerimeter=0;" edge="1" parent="1" target="fZuGH4uWd7Nxbb1TvUpe-94">
          <mxGeometry relative="1" as="geometry">
            <mxPoint x="790" y="879" as="sourcePoint" />
          </mxGeometry>
        </mxCell>
        <mxCell id="fZuGH4uWd7Nxbb1TvUpe-157" style="edgeStyle=orthogonalEdgeStyle;rounded=0;orthogonalLoop=1;jettySize=auto;html=1;entryX=0;entryY=0.5;entryDx=0;entryDy=0;endArrow=diamondThin;endFill=0;endSize=15;" edge="1" parent="1" source="fZuGH4uWd7Nxbb1TvUpe-136" target="fZuGH4uWd7Nxbb1TvUpe-110">
          <mxGeometry relative="1" as="geometry">
            <mxPoint x="1090.875" y="909" as="targetPoint" />
          </mxGeometry>
        </mxCell>
        <mxCell id="fZuGH4uWd7Nxbb1TvUpe-136" value="&lt;p style=&quot;margin:0px;margin-top:4px;text-align:center;&quot;&gt;&lt;b&gt;Pessoas&lt;/b&gt;&lt;/p&gt;&lt;hr size=&quot;1&quot;&gt;&lt;font size=&quot;1&quot;&gt;&amp;nbsp;- nome : char&lt;br&gt;&amp;nbsp;- sobrenome : char&lt;br&gt;&amp;nbsp;- cpf : char&lt;br&gt;&lt;/font&gt;&lt;br&gt;&lt;div style=&quot;height: 2px; font-size: 11px;&quot;&gt;&lt;/div&gt;&lt;hr size=&quot;1&quot;&gt;&lt;div style=&quot;height:2px;&quot;&gt;&lt;/div&gt;" style="verticalAlign=top;align=left;overflow=fill;fontSize=12;fontFamily=Helvetica;html=1;whiteSpace=wrap;" vertex="1" parent="1">
          <mxGeometry x="790" y="850" width="140" height="118" as="geometry" />
        </mxCell>
        <mxCell id="ktZMPZ2piIst7epQnQgk-13" style="edgeStyle=orthogonalEdgeStyle;rounded=0;orthogonalLoop=1;jettySize=auto;html=1;entryX=0.547;entryY=1.159;entryDx=0;entryDy=0;entryPerimeter=0;endArrow=diamondThin;endFill=0;endSize=15;" edge="1" parent="1" source="fZuGH4uWd7Nxbb1TvUpe-139" target="ktZMPZ2piIst7epQnQgk-6">
          <mxGeometry relative="1" as="geometry">
            <Array as="points">
              <mxPoint x="1592" y="1360" />
            </Array>
          </mxGeometry>
        </mxCell>
        <mxCell id="fZuGH4uWd7Nxbb1TvUpe-139" value="&lt;p style=&quot;margin:0px;margin-top:4px;text-align:center;&quot;&gt;&lt;b&gt;Acervo de Livros&lt;/b&gt;&lt;/p&gt;&lt;hr size=&quot;1&quot;&gt;&lt;div style=&quot;height:2px;&quot;&gt;&lt;/div&gt;&lt;hr size=&quot;1&quot;&gt;&lt;div style=&quot;height:2px;&quot;&gt;&lt;/div&gt;" style="verticalAlign=top;align=left;overflow=fill;fontSize=12;fontFamily=Helvetica;html=1;whiteSpace=wrap;" vertex="1" parent="1">
          <mxGeometry x="920" y="1330" width="140" height="60" as="geometry" />
        </mxCell>
        <mxCell id="fZuGH4uWd7Nxbb1TvUpe-153" style="edgeStyle=orthogonalEdgeStyle;rounded=0;orthogonalLoop=1;jettySize=auto;html=1;exitX=0.5;exitY=1;exitDx=0;exitDy=0;" edge="1" parent="1" source="fZuGH4uWd7Nxbb1TvUpe-139" target="fZuGH4uWd7Nxbb1TvUpe-139">
          <mxGeometry relative="1" as="geometry" />
        </mxCell>
        <mxCell id="fZuGH4uWd7Nxbb1TvUpe-162" style="edgeStyle=orthogonalEdgeStyle;rounded=0;orthogonalLoop=1;jettySize=auto;html=1;entryX=0;entryY=0.5;entryDx=0;entryDy=0;endArrow=diamondThin;endFill=0;endSize=15;" edge="1" parent="1">
          <mxGeometry relative="1" as="geometry">
            <mxPoint x="930" y="1091" as="sourcePoint" />
            <mxPoint x="1110" y="1090" as="targetPoint" />
          </mxGeometry>
        </mxCell>
        <mxCell id="fZuGH4uWd7Nxbb1TvUpe-173" style="edgeStyle=orthogonalEdgeStyle;rounded=0;orthogonalLoop=1;jettySize=auto;html=1;entryX=0.002;entryY=0.761;entryDx=0;entryDy=0;entryPerimeter=0;endArrow=diamondThin;endFill=0;endSize=15;" edge="1" parent="1" source="fZuGH4uWd7Nxbb1TvUpe-172" target="fZuGH4uWd7Nxbb1TvUpe-99">
          <mxGeometry relative="1" as="geometry" />
        </mxCell>
        <mxCell id="fZuGH4uWd7Nxbb1TvUpe-172" value="" style="line;strokeWidth=1;fillColor=none;align=left;verticalAlign=middle;spacingTop=-1;spacingLeft=3;spacingRight=3;rotatable=0;labelPosition=right;points=[];portConstraint=eastwest;strokeColor=inherit;" vertex="1" parent="1">
          <mxGeometry x="1180" y="1000" width="40" height="8" as="geometry" />
        </mxCell>
        <mxCell id="fZuGH4uWd7Nxbb1TvUpe-177" value="" style="endArrow=diamondThin;html=1;rounded=0;entryX=0.5;entryY=1;entryDx=0;entryDy=0;endFill=0;endSize=15;" edge="1" parent="1" target="fZuGH4uWd7Nxbb1TvUpe-92">
          <mxGeometry width="50" height="50" relative="1" as="geometry">
            <mxPoint x="388" y="1210" as="sourcePoint" />
            <mxPoint x="425" y="1122" as="targetPoint" />
          </mxGeometry>
        </mxCell>
        <mxCell id="ktZMPZ2piIst7epQnQgk-9" style="edgeStyle=orthogonalEdgeStyle;rounded=0;orthogonalLoop=1;jettySize=auto;html=1;entryX=1;entryY=0.5;entryDx=0;entryDy=0;dashed=1;" edge="1" parent="1" source="ktZMPZ2piIst7epQnQgk-8" target="fZuGH4uWd7Nxbb1TvUpe-151">
          <mxGeometry relative="1" as="geometry" />
        </mxCell>
        <mxCell id="ktZMPZ2piIst7epQnQgk-8" value="AtorGerente" style="shape=umlActor;verticalLabelPosition=bottom;verticalAlign=top;html=1;outlineConnect=0;" vertex="1" parent="1">
          <mxGeometry x="1960" y="1071" width="30" height="60" as="geometry" />
        </mxCell>
        <mxCell id="ktZMPZ2piIst7epQnQgk-12" style="edgeStyle=orthogonalEdgeStyle;rounded=0;orthogonalLoop=1;jettySize=auto;html=1;entryX=0;entryY=0.5;entryDx=0;entryDy=0;endArrow=diamondThin;endFill=0;endSize=15;" edge="1" parent="1" source="fZuGH4uWd7Nxbb1TvUpe-109" target="fZuGH4uWd7Nxbb1TvUpe-139">
          <mxGeometry relative="1" as="geometry">
            <mxPoint x="650" y="1260" as="sourcePoint" />
            <Array as="points">
              <mxPoint x="650" y="1360" />
            </Array>
          </mxGeometry>
        </mxCell>
        <mxCell id="ktZMPZ2piIst7epQnQgk-14" value="" style="triangle;whiteSpace=wrap;html=1;rotation=-180;fillColor=#000000;" vertex="1" parent="1">
          <mxGeometry x="952.5" y="1094" width="20" height="24" as="geometry" />
        </mxCell>
        <mxCell id="ktZMPZ2piIst7epQnQgk-16" value="Contem" style="text;strokeColor=none;align=center;fillColor=none;html=1;verticalAlign=middle;whiteSpace=wrap;rounded=0;" vertex="1" parent="1">
          <mxGeometry x="977.5" y="1096" width="50" height="20" as="geometry" />
        </mxCell>
        <mxCell id="ktZMPZ2piIst7epQnQgk-17" value="" style="triangle;whiteSpace=wrap;html=1;rotation=-180;fillColor=#000000;" vertex="1" parent="1">
          <mxGeometry x="955" y="916" width="20" height="24" as="geometry" />
        </mxCell>
        <mxCell id="ktZMPZ2piIst7epQnQgk-18" value="Contem" style="text;strokeColor=none;align=center;fillColor=none;html=1;verticalAlign=middle;whiteSpace=wrap;rounded=0;" vertex="1" parent="1">
          <mxGeometry x="975" y="918" width="50" height="20" as="geometry" />
        </mxCell>
        <mxCell id="ktZMPZ2piIst7epQnQgk-20" value="" style="triangle;whiteSpace=wrap;html=1;fillColor=#000000;" vertex="1" parent="1">
          <mxGeometry x="575" y="1046.5" width="20" height="24" as="geometry" />
        </mxCell>
        <mxCell id="ktZMPZ2piIst7epQnQgk-21" value="Registram" style="text;strokeColor=none;align=center;fillColor=none;html=1;verticalAlign=middle;whiteSpace=wrap;rounded=0;" vertex="1" parent="1">
          <mxGeometry x="510" y="1046.5" width="60" height="19" as="geometry" />
        </mxCell>
        <mxCell id="ktZMPZ2piIst7epQnQgk-22" value="" style="triangle;whiteSpace=wrap;html=1;rotation=-180;fillColor=#000000;" vertex="1" parent="1">
          <mxGeometry x="565" y="760" width="20" height="24" as="geometry" />
        </mxCell>
        <mxCell id="ktZMPZ2piIst7epQnQgk-23" value="Contem" style="text;strokeColor=none;align=center;fillColor=none;html=1;verticalAlign=middle;whiteSpace=wrap;rounded=0;" vertex="1" parent="1">
          <mxGeometry x="585" y="762" width="50" height="20" as="geometry" />
        </mxCell>
        <mxCell id="ktZMPZ2piIst7epQnQgk-24" value="" style="triangle;whiteSpace=wrap;html=1;rotation=-180;fillColor=#000000;" vertex="1" parent="1">
          <mxGeometry x="750" y="1366" width="20" height="24" as="geometry" />
        </mxCell>
        <mxCell id="ktZMPZ2piIst7epQnQgk-25" value="Contem" style="text;strokeColor=none;align=center;fillColor=none;html=1;verticalAlign=middle;whiteSpace=wrap;rounded=0;" vertex="1" parent="1">
          <mxGeometry x="770" y="1368" width="50" height="20" as="geometry" />
        </mxCell>
        <mxCell id="ktZMPZ2piIst7epQnQgk-26" value="Assumido por" style="text;strokeColor=none;align=center;fillColor=none;html=1;verticalAlign=middle;whiteSpace=wrap;rounded=0;" vertex="1" parent="1">
          <mxGeometry x="870" y="1000" width="50" height="20" as="geometry" />
        </mxCell>
        <mxCell id="ktZMPZ2piIst7epQnQgk-27" value="1" style="text;strokeColor=none;align=center;fillColor=none;html=1;verticalAlign=middle;whiteSpace=wrap;rounded=0;" vertex="1" parent="1">
          <mxGeometry x="540" y="1180" width="60" height="30" as="geometry" />
        </mxCell>
        <mxCell id="ktZMPZ2piIst7epQnQgk-28" value="0..*" style="text;strokeColor=none;align=center;fillColor=none;html=1;verticalAlign=middle;whiteSpace=wrap;rounded=0;" vertex="1" parent="1">
          <mxGeometry x="648.75" y="1254" width="60" height="30" as="geometry" />
        </mxCell>
        <mxCell id="ktZMPZ2piIst7epQnQgk-29" value="1" style="text;strokeColor=none;align=center;fillColor=none;html=1;verticalAlign=middle;whiteSpace=wrap;rounded=0;" vertex="1" parent="1">
          <mxGeometry x="750" y="1058" width="60" height="30" as="geometry" />
        </mxCell>
        <mxCell id="ktZMPZ2piIst7epQnQgk-30" value="0..*" style="text;strokeColor=none;align=center;fillColor=none;html=1;verticalAlign=middle;whiteSpace=wrap;rounded=0;" vertex="1" parent="1">
          <mxGeometry x="920" y="877" width="60" height="30" as="geometry" />
        </mxCell>
        <mxCell id="ktZMPZ2piIst7epQnQgk-31" value="0..*" style="text;strokeColor=none;align=center;fillColor=none;html=1;verticalAlign=middle;whiteSpace=wrap;rounded=0;" vertex="1" parent="1">
          <mxGeometry x="930" y="1064" width="60" height="30" as="geometry" />
        </mxCell>
      </root>
    </mxGraphModel>
  </diagram>
</mxfile>
